<svg width="95" height="25" viewBox="0 0 95 25" fill="none" xmlns="http://www.w3.org/2000/svg">
<path fill-rule="evenodd" clip-rule="evenodd" d="M44 7.5C44 3.91015 41.0899 1 37.5 1H12.5C6.14873 1 1 6.14873 1 12.5C1 18.8513 6.14873 24 12.5 24L82.5 24C88.8513 24 94 18.8513 94 12.5C94 6.14873 88.8513 1 82.5 1L57.5 1C53.9102 1 51 3.91015 51 7.5C51 11.0899 53.9102 14 57.5 14C59.3371 14 60.8945 13.2056 62.126 12.1495C63.3498 11.0999 64.3193 9.73859 65.0381 8.42541C66.4835 5.78505 69.2844 4 72.5 4C77.1944 4 81 7.80558 81 12.5C81 17.1944 77.1944 21 72.5 21L22.5 21C17.8056 21 14 17.1944 14 12.5C14 7.80558 17.8056 4 22.5 4C25.7156 4 28.5165 5.78505 29.9619 8.42541C30.6807 9.73858 31.6502 11.0999 32.874 12.1495C34.1055 13.2056 35.6629 14 37.5 14C41.0899 14 44 11.0899 44 7.5Z" fill="currentColor"/>
</svg>
