<svg width="200" height="100" viewBox="0 0 200 100" fill="none" xmlns="http://www.w3.org/2000/svg">
<path fill-rule="evenodd" clip-rule="evenodd" d="M50 0C22.3858 0 0 22.3858 0 50C0 77.6142 22.3858 100 50 100H150C177.614 100 200 77.6142 200 50C200 22.3858 177.614 0 150 0H50ZM117.37 64.8397C120.906 64.8397 124.284 64.1589 127.379 62.9211C122.66 72.3139 112.938 78.7593 101.71 78.7593C85.8537 78.7593 73 65.9056 73 50.0497C73 36.3042 82.6598 24.8149 95.5612 22C92.3152 26.4529 90.3999 31.9378 90.3999 37.8701C90.3999 52.765 102.475 64.8397 117.37 64.8397Z" fill="currentColor"/>
</svg>
