<svg width="200" height="100" viewBox="0 0 200 100" fill="none" xmlns="http://www.w3.org/2000/svg">
<path fill-rule="evenodd" clip-rule="evenodd" d="M50 0C22.3858 0 0 22.3858 0 50C0 77.6142 22.3858 100 50 100H150C177.614 100 200 77.6142 200 50C200 22.3858 177.614 0 150 0H50ZM105.809 35.9755L100 17L94.1909 35.9755L76.6655 26.6655L85.9755 44.1909L67 50L85.9755 55.8091L76.6655 73.3345L94.1909 64.0245L100 83L105.809 64.0245L123.335 73.3345L114.024 55.8091L133 50L114.024 44.1909L123.335 26.6655L105.809 35.9755Z" fill="currentColor"/>
</svg>
